<svg xmlns="http://www.w3.org/2000/svg" xmlns:xlink="http://www.w3.org/1999/xlink" fill="none" version="1.1" width="20" height="20" viewBox="0 0 20 20"><defs><clipPath id="master_svg0_20_374"><rect x="0" y="0" width="20" height="20" rx="0"/></clipPath></defs><g clip-path="url(#master_svg0_20_374)"><g transform="matrix(1,0,0,-1,0,40.859375)"><g><path d="M10,20.4296875Q12.7344,20.46875,15,21.7578075Q17.2656,23.0859375,18.6719,25.4296875Q20,27.8124975,20,30.4296875Q20,33.0468875,18.6719,35.4296875Q17.2656,37.7734875,15,39.1015875Q12.7344,40.390587499999995,10,40.4296875Q7.26562,40.390587499999995,5,39.1015875Q2.73438,37.7734875,1.32812,35.4296875Q0,33.0468875,0,30.4296875Q0,27.8124975,1.32812,25.4296875Q2.73438,23.0859375,5,21.7578075Q7.26562,20.46875,10,20.4296875ZM14.4141,32.2655875L9.41406,27.2656275L14.4141,32.2655875L9.41406,27.2656275Q8.75,26.7187475,8.08594,27.2656275L5.58594,29.7656275Q5.03906,30.4296875,5.58594,31.093787499999998Q6.25,31.640587500000002,6.91406,31.093787499999998L8.75,29.2578075L13.0859,33.5937875Q13.75,34.1405875,14.4141,33.5937875Q14.9609,32.9296875,14.4141,32.2655875Z" fill="#22C55E" fill-opacity="1" style="mix-blend-mode:passthrough"/></g></g></g></svg>