<svg xmlns="http://www.w3.org/2000/svg" xmlns:xlink="http://www.w3.org/1999/xlink" fill="none" version="1.1" width="12.5" height="20" viewBox="0 0 12.5 20"><defs><clipPath id="master_svg0_15_340"><rect x="0" y="0" width="12.5" height="20" rx="0"/></clipPath></defs><g clip-path="url(#master_svg0_15_340)"><g transform="matrix(1,0,0,-1,0,33.359375)"><g><path d="M12.1484,27.031287499999998Q12.5,27.4218875,12.5,27.9296875Q12.5,28.4374875,12.1484,28.828087500000002Q11.7578,29.1796875,11.25,29.1796875Q10.7422,29.1796875,10.3516,28.828087500000002L6.25,24.6874975L2.14844,28.828087500000002Q1.75781,29.1796875,1.25,29.1796875Q0.742188,29.1796875,0.351562,28.828087500000002Q0,28.4374875,0,27.9296875Q0,27.4218875,0.351562,27.031287499999998L4.49219,22.9296875L0.351562,18.8281275Q0,18.4374975,0,17.9296875Q0,17.4218755,0.351562,17.0312495Q0.742188,16.6796875,1.25,16.6796875Q1.75781,16.6796875,2.14844,17.0312495L6.25,21.1718775L10.3516,17.0312495Q10.7422,16.6796875,11.25,16.6796875Q11.7578,16.6796875,12.1484,17.0312495Q12.5,17.4218755,12.5,17.9296875Q12.5,18.4374975,12.1484,18.8281275L8.00781,22.9296875L12.1484,27.031287499999998Z" fill="#F87171" fill-opacity="1" style="mix-blend-mode:passthrough"/></g></g></g></svg>