<svg xmlns="http://www.w3.org/2000/svg" xmlns:xlink="http://www.w3.org/1999/xlink" fill="none" version="1.1" width="20" height="20" viewBox="0 0 20 20"><defs><clipPath id="master_svg0_20_384"><rect x="0" y="0" width="20" height="20" rx="0"/></clipPath></defs><g clip-path="url(#master_svg0_20_384)"><g transform="matrix(1,0,0,-1,0,40.85938262939453)"><g><path d="M11.968945446610451,38.554691314697266Q11.930245446610451,39.60939131469726,11.042245446610451,40.195291314697265Q10.11561544661045,40.66409131469727,9.188975446610451,40.195291314697265Q8.30094544661045,39.60939131469726,8.26233544661045,38.554691314697266Q8.30094544661045,37.49999131469727,9.188975446610451,36.91409131469727Q10.11561544661045,36.445291314697265,11.042245446610451,36.91409131469727Q11.930245446610451,37.49999131469727,11.968945446610451,38.554691314697266ZM11.968945446610451,22.304691314697266Q11.930245446610451,23.359381314697266,11.042245446610451,23.945311314697264Q10.11561544661045,24.414071314697267,9.188975446610451,23.945311314697264Q8.30094544661045,23.359381314697266,8.26233544661045,22.304691314697266Q8.30094544661045,21.250003314697267,9.188975446610451,20.664066314697266Q10.11561544661045,20.195316314697266,11.042245446610451,20.664066314697266Q11.930245446610451,21.250003314697267,11.968945446610451,22.304691314697266ZM2.0847254466104506,28.554691314697266Q3.127195446610451,28.593751314697265,3.7063454466104506,29.492191314697266Q4.16966544661045,30.429691314697266,3.7063454466104506,31.367191314697266Q3.127195446610451,32.26559131469727,2.0847254466104506,32.304691314697266Q1.0422564466104507,32.26559131469727,0.4631054466104507,31.367191314697266Q-0.00021455338954926018,30.429691314697266,0.4631054466104507,29.492191314697266Q1.0422564466104507,28.593751314697265,2.0847254466104506,28.554691314697266ZM19.99974544661045,30.429691314697266Q19.961145446610452,31.484391314697266,19.07314544661045,32.070291314697265Q18.14654544661045,32.53909131469727,17.21984544661045,32.070291314697265Q16.33184544661045,31.484391314697266,16.293245446610452,30.429691314697266Q16.33184544661045,29.375001314697265,17.21984544661045,28.789071314697267Q18.14654544661045,28.320311314697264,19.07314544661045,28.789071314697267Q19.961145446610452,29.375001314697265,19.99974544661045,30.429691314697266ZM5.7526854466104504,23.359381314697266Q6.486275446610451,24.140631314697266,6.216005446610451,25.156251314697265Q5.907115446610451,26.171881314697266,4.9032554466104505,26.484381314697266Q3.8993954466104506,26.757811314697264,3.127195446610451,26.015631314697266Q2.393605446610451,25.234381314697266,2.663875446610451,24.218751314697265Q2.934145446610451,23.164061314697264,3.9766154466104506,22.890631314697266Q4.980475446610451,22.617191314697266,5.7526854466104504,23.359381314697266ZM5.7526854466104504,34.84379131469726Q6.524885446610451,35.62499131469727,6.254615446610451,36.679691314697266Q5.984345446610451,37.73439131469726,4.941865446610451,38.04689131469726Q3.8993954466104506,38.28129131469727,3.127195446610451,37.49999131469727Q2.393605446610451,36.71879131469727,2.663875446610451,35.70309131469727Q2.934145446610451,34.68749131469727,3.9766154466104506,34.37499131469727Q4.980475446610451,34.10159131469727,5.7526854466104504,34.84379131469726ZM14.47854544661045,23.359381314697266Q15.25074544661045,22.617191314697266,16.25464544661045,22.890631314697266Q17.29704544661045,23.164061314697264,17.56734544661045,24.218751314697265Q17.837645446610452,25.234381314697266,17.10404544661045,26.015631314697266Q16.33184544661045,26.757811314697264,15.327945446610451,26.484381314697266Q14.324145446610451,26.171881314697266,14.01524544661045,25.156251314697265Q13.744945446610451,24.140631314697266,14.47854544661045,23.359381314697266Z" fill="#EAB308" fill-opacity="1" style="mix-blend-mode:passthrough"/></g></g></g></svg>