<svg xmlns="http://www.w3.org/2000/svg" xmlns:xlink="http://www.w3.org/1999/xlink" fill="none" version="1.1" width="12.25" height="14" viewBox="0 0 12.25 14"><defs><clipPath id="master_svg0_26_0075"><rect x="0" y="0" width="12.25" height="14" rx="0"/></clipPath></defs><g clip-path="url(#master_svg0_26_0075)"><g transform="matrix(1,0,0,-1,0,28.6015625)"><g><path d="M6.125,21.30078125Q7.08203,21.30078125,7.875,21.76562125Q8.66797,22.23047125,9.16016,23.05078125Q9.625,23.87109125,9.625,24.80078125Q9.625,25.73048125,9.16016,26.55078125Q8.66797,27.37108125,7.875,27.83598125Q7.08203,28.30078125,6.125,28.30078125Q5.16797,28.30078125,4.375,27.83598125Q3.58203,27.37108125,3.08984,26.55078125Q2.625,25.73048125,2.625,24.80078125Q2.625,23.87109125,3.08984,23.05078125Q3.58203,22.23047125,4.375,21.76562125Q5.16797,21.30078125,6.125,21.30078125ZM4.86719,19.98828125Q2.81641,19.93359125,1.42188,18.56640125Q0.0546875,17.17187125,0,15.12109325Q0,14.76562525,0.246094,14.54687525Q0.464844,14.30078125,0.820312,14.30078125L11.4297,14.30078125Q11.7852,14.30078125,12.0039,14.54687525Q12.25,14.76562525,12.25,15.12109325Q12.1953,17.17187125,10.8281,18.56640125Q9.43359,19.93359125,7.38281,19.98828125L4.86719,19.98828125Z" fill="#6B7280" fill-opacity="1" style="mix-blend-mode:passthrough"/></g></g></g></svg>