<svg xmlns="http://www.w3.org/2000/svg" xmlns:xlink="http://www.w3.org/1999/xlink" fill="none" version="1.1" width="20" height="20" viewBox="0 0 20 20"><defs><clipPath id="master_svg0_20_379"><rect x="0" y="0" width="20" height="20" rx="0"/></clipPath></defs><g clip-path="url(#master_svg0_20_379)"><g transform="matrix(1,0,0,-1,0,40.859375)"><g><path d="M10,20.4296875Q12.7344,20.46875,15,21.7578075Q17.2656,23.0859375,18.6719,25.4296875Q20,27.8124975,20,30.4296875Q20,33.0468875,18.6719,35.4296875Q17.2656,37.7734875,15,39.1015875Q12.7344,40.390587499999995,10,40.4296875Q7.26562,40.390587499999995,5,39.1015875Q2.73438,37.7734875,1.32812,35.4296875Q0,33.0468875,0,30.4296875Q0,27.8124975,1.32812,25.4296875Q2.73438,23.0859375,5,21.7578075Q7.26562,20.46875,10,20.4296875ZM6.64062,33.9843875Q6.875,34.6484875,7.42188,35.0390875Q7.96875,35.4296875,8.71094,35.4296875L10.9766,35.4296875Q12.0312,35.3905875,12.7344,34.6874875Q13.3984,34.0234875,13.4375,32.9687875Q13.3984,31.5624875,12.1875,30.8202875L10.9375,30.1171875Q10.8594,29.2578075,10,29.1796875Q9.14062,29.2578075,9.0625,30.1171875L9.0625,30.6249875Q9.0625,31.1718875,9.53125,31.4452875L11.25,32.4608875Q11.5625,32.6171875,11.5625,32.9687875Q11.5234,33.5155875,10.9766,33.5546875L8.71094,33.5546875Q8.47656,33.5546875,8.39844,33.3593875L8.39844,33.2812875Q8.00781,32.4999875,7.1875,32.7343875Q6.40625,33.0858875,6.60156,33.9062875L6.64062,33.9843875ZM8.75,26.6796875Q8.75,27.2265675,9.10156,27.5781275Q9.45312,27.9296875,10,27.9296875Q10.5469,27.9296875,10.8984,27.5781275Q11.25,27.2265675,11.25,26.6796875Q11.25,26.1328075,10.8984,25.7812475Q10.5469,25.4296875,10,25.4296875Q9.45312,25.4296875,9.10156,25.7812475Q8.75,26.1328075,8.75,26.6796875Z" fill="#6B7280" fill-opacity="1" style="mix-blend-mode:passthrough"/></g></g></g></svg>