<svg xmlns="http://www.w3.org/2000/svg" xmlns:xlink="http://www.w3.org/1999/xlink" fill="none" version="1.1" width="18" height="18" viewBox="0 0 18 18"><defs><clipPath id="master_svg0_1_051"><rect x="0" y="0" width="18" height="18" rx="0"/></clipPath></defs><g clip-path="url(#master_svg0_1_051)"><g transform="matrix(1,0,0,-1,0,36.7734375)"><g><path d="M14.625,29.07421875Q14.5898,26.61327875,13.2188,24.74999875L17.6836,20.32030875Q18,19.96874875,18,19.51171875Q18,19.05468775,17.6836,18.70312475Q17.332,18.38671875,16.875,18.38671875Q16.418,18.38671875,16.0664,18.70312475L11.6367,23.16796875Q9.77344,21.79687875,7.3125,21.76171875Q4.21875,21.83202875,2.14453,23.90624875Q0.0703125,25.98046875,0,29.07421875Q0.0703125,32.16791875,2.14453,34.24221875Q4.21875,36.31641875,7.3125,36.38671875Q10.4062,36.31641875,12.4805,34.24221875Q14.5547,32.16791875,14.625,29.07421875ZM7.3125,24.01171875Q8.68359,24.01171875,9.84375,24.67968875Q11.0039,25.34765875,11.707,26.54296875Q12.375,27.73827875,12.375,29.07421875Q12.375,30.410118750000002,11.707,31.60551875Q11.0039,32.80081875,9.84375,33.46871875Q8.68359,34.13671875,7.3125,34.13671875Q5.94141,34.13671875,4.78125,33.46871875Q3.62109,32.80081875,2.91797,31.60551875Q2.25,30.410118750000002,2.25,29.07421875Q2.25,27.73827875,2.91797,26.54296875Q3.62109,25.34765875,4.78125,24.67968875Q5.94141,24.01171875,7.3125,24.01171875Z" fill="#FFFFFF" fill-opacity="1" style="mix-blend-mode:passthrough"/></g></g></g></svg>