<svg data-v-7569b31f="" width="20" height="20" viewBox="0 0 20 20" fill="none" xmlns="http://www.w3.org/2000/svg" class="h-8 w-8"><path d="M18.1445 5.51795C18.0484 5.15628 17.859 4.82621 17.5953 4.56075C17.3315 4.29529 17.0026 4.10376 16.6416 4.00534C15.3125 3.64795 10 3.64795 10 3.64795C10 3.64795 4.6875 3.64795 3.35841 4.00534C2.99737 4.10376 2.66851 4.29529 2.40475 4.56075C2.14098 4.82621 1.95157 5.15628 1.85545 5.51795C1.5 6.85284 1.5 9.63659 1.5 9.63659C1.5 9.63659 1.5 12.4203 1.85545 13.7552C1.95157 14.1169 2.14098 14.447 2.40475 14.7124C2.66851 14.9779 2.99737 15.1694 3.35841 15.2678C4.6875 15.6252 10 15.6252 10 15.6252C10 15.6252 15.3125 15.6252 16.6416 15.2678C17.0026 15.1694 17.3315 14.9779 17.5953 14.7124C17.859 14.447 18.0484 14.1169 18.1445 13.7552C18.5 12.4203 18.5 9.63659 18.5 9.63659C18.5 9.63659 18.5 6.85284 18.1445 5.51795Z" stroke="#E53232" stroke-width="1.5"></path><path d="M8.26172 12.164V7.1084L12.7049 9.63618L8.26172 12.164Z" fill="#E53232"></path></svg>